<svg width="514" height="122" xmlns="http://www.w3.org/2000/svg">
 <g>
  <rect fill="none" id="canvas_background" height="124" width="516" y="-1" x="-1"/>
 </g>
 <g>
  <path stroke-width="0" stroke="null" id="svg_1" d="m107.17152,1.99238c-7.15947,0 -12.98182,5.82235 -12.98182,12.98182c0,2.23936 0.56904,4.34675 1.5708,6.188l-21.26638,21.26638c-2.93173,-2.28264 -6.60125,-3.65438 -10.59533,-3.65438s-7.6636,1.37175 -10.59749,3.65222l-16.59293,-16.59293c0.7616,-1.28736 1.22678,-2.76729 1.22678,-4.36838c0,-4.77298 -3.88156,-8.65455 -8.65455,-8.65455s-8.65455,3.88156 -8.65455,8.65455s3.88156,8.65455 8.65455,8.65455c1.60109,0 3.08102,-0.46518 4.36838,-1.22678l16.59293,16.59293c-2.28047,2.93389 -3.65222,6.60342 -3.65222,10.59749s1.37175,7.6636 3.65222,10.59533l-27.40029,27.40245c-2.30644,-2.09224 -5.355,-3.3796 -8.70647,-3.3796c-7.15947,0 -12.98182,5.82235 -12.98182,12.98182s5.82235,12.98182 12.98182,12.98182s12.98182,-5.82235 12.98182,-12.98182c0,-2.23936 -0.56904,-4.34675 -1.5708,-6.188l27.75729,-27.75729c2.39298,1.86073 5.27927,3.10698 8.43385,3.50293l0,21.98255c-6.12958,1.03422 -10.81818,6.36542 -10.81818,12.78709c0,7.15947 5.82235,12.98182 12.98182,12.98182s12.98182,-5.82235 12.98182,-12.98182c0,-6.41951 -4.6886,-11.75071 -10.81818,-12.78709l0,-21.98255c3.15458,-0.39595 6.04087,-1.6422 8.43385,-3.50293l16.59293,16.59293c-0.76376,1.28953 -1.22895,2.76945 -1.22895,4.37055c0,4.77298 3.88156,8.65455 8.65455,8.65455s8.65455,-3.88156 8.65455,-8.65455s-3.88156,-8.65455 -8.65455,-8.65455c-1.60109,0 -3.08102,0.46518 -4.36838,1.22678l-16.59293,-16.59293c2.28047,-2.93389 3.65222,-6.60342 3.65222,-10.59749s-1.37175,-7.6636 -3.65222,-10.59533l20.91155,-20.91155c2.30427,2.09224 5.35284,3.3796 8.70431,3.3796c7.15947,0 12.98182,-5.82235 12.98182,-12.98182s-5.82235,-12.98182 -12.98182,-12.98182zm-82.21818,19.47273c0,-2.38649 1.94078,-4.32727 4.32727,-4.32727s4.32727,1.94078 4.32727,4.32727s-1.94078,4.32727 -4.32727,4.32727s-4.32727,-1.94078 -4.32727,-4.32727zm-10.81818,90.87273c-4.77298,0 -8.65455,-3.88156 -8.65455,-8.65455s3.88156,-8.65455 8.65455,-8.65455s8.65455,3.88156 8.65455,8.65455s-3.88156,8.65455 -8.65455,8.65455zm58.41818,-4.32727c0,4.77298 -3.88156,8.65455 -8.65455,8.65455s-8.65455,-3.88156 -8.65455,-8.65455s3.88156,-8.65455 8.65455,-8.65455s8.65455,3.88156 8.65455,8.65455zm-8.65455,-38.94545c-7.15947,0 -12.98182,-5.82235 -12.98182,-12.98182s5.82235,-12.98182 12.98182,-12.98182s12.98182,5.82235 12.98182,12.98182s-5.82235,12.98182 -12.98182,12.98182zm38.94545,21.63636c0,2.38649 -1.94078,4.32727 -4.32727,4.32727s-4.32727,-1.94078 -4.32727,-4.32727s1.94078,-4.32727 4.32727,-4.32727s4.32727,1.94078 4.32727,4.32727zm4.32727,-67.07273c-4.77298,0 -8.65455,-3.88156 -8.65455,-8.65455s3.88156,-8.65455 8.65455,-8.65455s8.65455,3.88156 8.65455,8.65455s-3.88156,8.65455 -8.65455,8.65455z" fill="#f0fdff" />
  <text stroke="null" transform="matrix(2.67252304467469,0,0,2.67252304467469,-373.3860926825298,-388.7879424866591) " font-weight="bold" xml:space="preserve" text-anchor="start" font-family="system-ui, sans-serif" letter-spacing="-0.6px" font-size="24" id="svg_17" y="176.72105" x="193.22138" stroke-opacity="null" stroke-width="0" fill="#f0fdff">Educadores</text>
 </g>
</svg>