<svg viewBox="0 0 488 122" xmlns="http://www.w3.org/2000/svg">
<g>
<g stroke="null">
<rect x="-1" y="-1" width="490" height="124" fill="none" stroke="null"/>
</g>
<g fill="#f0fdff" stroke="null" stroke-width="0">
<path d="m107.17 1.9924c-7.1595 0-12.982 5.8224-12.982 12.982 0 2.2394 0.56904 4.3468 1.5708 6.188l-21.266 21.266c-2.9317-2.2826-6.6012-3.6544-10.595-3.6544s-7.6636 1.3718-10.597 3.6522l-16.593-16.593c0.7616-1.2874 1.2268-2.7673 1.2268-4.3684 0-4.773-3.8816-8.6546-8.6546-8.6546s-8.6546 3.8816-8.6546 8.6546 3.8816 8.6546 8.6546 8.6546c1.6011 0 3.081-0.46518 4.3684-1.2268l16.593 16.593c-2.2805 2.9339-3.6522 6.6034-3.6522 10.597s1.3718 7.6636 3.6522 10.595l-27.4 27.402c-2.3064-2.0922-5.355-3.3796-8.7065-3.3796-7.1595 0-12.982 5.8224-12.982 12.982s5.8224 12.982 12.982 12.982 12.982-5.8224 12.982-12.982c0-2.2394-0.56904-4.3468-1.5708-6.188l27.757-27.757c2.393 1.8607 5.2793 3.107 8.4338 3.5029v21.983c-6.1296 1.0342-10.818 6.3654-10.818 12.787 0 7.1595 5.8224 12.982 12.982 12.982s12.982-5.8224 12.982-12.982c0-6.4195-4.6886-11.751-10.818-12.787v-21.983c3.1546-0.39595 6.0409-1.6422 8.4338-3.5029l16.593 16.593c-0.76376 1.2895-1.229 2.7694-1.229 4.3706 0 4.773 3.8816 8.6546 8.6546 8.6546s8.6546-3.8816 8.6546-8.6546-3.8816-8.6546-8.6546-8.6546c-1.6011 0-3.081 0.46518-4.3684 1.2268l-16.593-16.593c2.2805-2.9339 3.6522-6.6034 3.6522-10.597s-1.3718-7.6636-3.6522-10.595l20.912-20.912c2.3043 2.0922 5.3528 3.3796 8.7043 3.3796 7.1595 0 12.982-5.8224 12.982-12.982s-5.8224-12.982-12.982-12.982zm-82.218 19.473c0-2.3865 1.9408-4.3273 4.3273-4.3273s4.3273 1.9408 4.3273 4.3273-1.9408 4.3273-4.3273 4.3273-4.3273-1.9408-4.3273-4.3273zm-10.818 90.873c-4.773 0-8.6546-3.8816-8.6546-8.6546s3.8816-8.6546 8.6546-8.6546 8.6546 3.8816 8.6546 8.6546-3.8816 8.6546-8.6546 8.6546zm58.418-4.3273c0 4.773-3.8816 8.6546-8.6546 8.6546s-8.6546-3.8816-8.6546-8.6546 3.8816-8.6546 8.6546-8.6546 8.6546 3.8816 8.6546 8.6546zm-8.6546-38.945c-7.1595 0-12.982-5.8224-12.982-12.982s5.8224-12.982 12.982-12.982 12.982 5.8224 12.982 12.982-5.8224 12.982-12.982 12.982zm38.945 21.636c0 2.3865-1.9408 4.3273-4.3273 4.3273s-4.3273-1.9408-4.3273-4.3273 1.9408-4.3273 4.3273-4.3273 4.3273 1.9408 4.3273 4.3273zm4.3273-67.073c-4.773 0-8.6546-3.8816-8.6546-8.6546s3.8816-8.6546 8.6546-8.6546 8.6546 3.8816 8.6546 8.6546-3.8816 8.6546-8.6546 8.6546z"/>
<text transform="matrix(2.6725 0 0 2.6725 -373.39 -388.79)" x="193.22138" y="176.72105" font-family="system-ui, sans-serif" font-size="24" font-weight="bold" stroke-opacity="null" xml:space="preserve">Educadores</text>
</g>
</g>
</svg>
